<?xml version="1.0" encoding="utf-8"?>
<!-- Generator: Adobe Adobe Illustrator 24.2.0, SVG Export Plug-In . SVG Version: 6.00 Build 0)  -->
<svg version="1.1" xmlns="http://www.w3.org/2000/svg" xmlns:xlink="http://www.w3.org/1999/xlink" x="0px" y="0px"
	 width="1810px" height="387.17px" viewBox="0 0 1810 387.17" style="enable-background:new 0 0 1810 387.17;" xml:space="preserve"
	>
<g>
	<g>
		<path d="M153.07,249.65h-42.12l-7.34,41.31h-42.4l45.66-188.34h51.09l45.66,188.34h-43.21L153.07,249.65z M147.37,218.94
			l-15.49-85.07l-15.22,85.07H147.37z"/>
		<path d="M358.26,290.96l-30.71-72.56h-1.36h-10.33v72.56h-42.67V102.62h50.28c48.38,0,70.12,20.38,70.12,57.07
			c0,20.93-8.15,40.22-28.54,50.55l38.59,80.72H358.26z M324.56,188.78c18.48,0,25.55-9.24,25.55-29.08
			c0-18.48-7.88-26.91-26.91-26.91h-7.34v55.99H324.56z"/>
		<path d="M568.34,133.06h-52.45v47.29h46.2v29.9h-46.2v49.73h55.99v30.98h-98.65V102.62h99.47L568.34,133.06z"/>
		<path d="M773.79,290.96h-52.72l-39.68-149.2c2.17,18.75,5.44,43.21,5.44,78v71.21h-36.69V102.62h52.72l39.68,149.2
			c-2.45-16.03-5.71-40.77-5.71-70.39v-78.81h36.96V290.96z"/>
		<path d="M935.22,249.65H893.1l-7.34,41.31h-42.4l45.66-188.34h51.09l45.66,188.34h-43.21L935.22,249.65z M929.51,218.94
			l-15.49-85.07l-15.22,85.07H929.51z"/>
		<path d="M1144.21,122.46l-5.98,5.71c-11.41-11.69-21.2-16.58-35.87-16.58c-20.38,0-33.7,14.95-33.7,34.52
			c0,20.38,9.78,30.98,36.69,41.31c29.08,11.14,43.48,24.46,43.48,53.54c0,29.9-20.11,52.72-48.65,52.72
			c-20.38,0-34.79-8.97-47.29-22.56l5.98-5.71c11.14,11.42,22.83,19.57,41.04,19.57c23.92,0,39.41-18.21,39.41-43.48
			c0-24.46-9.78-35.06-37.78-46.2c-30.98-12.23-42.67-25.55-42.67-48.92c0-23.37,17.67-43.76,43.48-43.76
			C1121.38,102.62,1132.8,110.23,1144.21,122.46z"/>
		<path d="M1278.46,217.58v73.38h-9.78v-73.11l-48.38-112.24h10.33l43.21,103.27l42.4-103.27h9.78L1278.46,217.58z"/>
		<path d="M1512.18,290.96h-12.23l-76.64-174.48c0.54,10.87,1.09,25,1.09,57.62v116.86h-8.97V105.61h12.23l76.64,174.48
			c-0.27-10.6-1.36-28.81-1.36-53.54V105.61h9.24V290.96z"/>
		<path d="M1712.48,118.93l-5.44,5.98c-10.33-8.97-18.48-13.32-31.8-13.32c-28.54,0-51.64,22.56-51.64,86.7
			c0,61.42,22.29,86.42,51.09,86.42c16.04,0,24.73-6.52,33.7-14.95l5.71,6.25c-9.51,10.06-22.01,17.67-39.68,17.67
			c-34.79,0-60.61-29.62-60.61-95.39c0-67.4,27.45-95.67,60.88-95.67C1691.55,102.62,1702.15,109.15,1712.48,118.93z"/>
	</g>
</g>
</svg>
