<?xml version="1.0" encoding="utf-8"?>
<!-- Generator: Adobe Adobe Illustrator 24.2.0, SVG Export Plug-In . SVG Version: 6.00 Build 0)  -->
<svg version="1.1" id="Layer_1" xmlns="http://www.w3.org/2000/svg" xmlns:xlink="http://www.w3.org/1999/xlink" x="0px" y="0px"
	 width="1920px" height="971.92px" viewBox="0 0 1920 971.92" style="enable-background:new 0 0 1920 971.92;" xml:space="preserve"
	>
<style type="text/css">
	.st0{fill:none;stroke:#000000;stroke-miterlimit:10;}
	.st1{fill:#4AC9EF;}
	.st2{fill:#4361EC;}
	.st3{fill:#3A0AA3;stroke:#000000;stroke-miterlimit:10;}
	.st4{fill:#7109B7;}
</style>
<g>
	<g>
		<path d="M197.74,883.44h-42.12l-7.34,41.31h-42.4l45.66-188.34h51.09l45.66,188.34h-43.21L197.74,883.44z M192.04,852.73
			l-15.49-85.06l-15.22,85.06H192.04z"/>
		<path d="M402.93,924.75l-30.71-72.56h-1.36h-10.33v72.56h-42.67V736.41h50.28c48.38,0,70.12,20.38,70.12,57.07
			c0,20.93-8.15,40.22-28.54,50.55l38.59,80.72H402.93z M369.23,822.56c18.48,0,25.55-9.24,25.55-29.08
			c0-18.48-7.88-26.91-26.9-26.91h-7.34v55.99H369.23z"/>
		<path d="M613.01,766.85h-52.45v47.29h46.2v29.9h-46.2v49.73h55.98v30.98h-98.65V736.41h99.47L613.01,766.85z"/>
		<path d="M818.46,924.75h-52.72l-39.68-149.21c2.17,18.75,5.43,43.21,5.43,78v71.21H694.8V736.41h52.72l39.68,149.2
			c-2.45-16.03-5.71-40.77-5.71-70.39v-78.81h36.96V924.75z"/>
		<path d="M979.89,883.44h-42.12l-7.34,41.31h-42.4l45.66-188.34h51.09l45.66,188.34h-43.21L979.89,883.44z M974.19,852.73
			l-15.49-85.06l-15.22,85.06H974.19z"/>
		<path d="M1188.88,756.25l-5.98,5.71c-11.41-11.69-21.2-16.58-35.87-16.58c-20.38,0-33.7,14.95-33.7,34.52
			c0,20.38,9.79,30.98,36.69,41.31c29.08,11.14,43.48,24.46,43.48,53.54c0,29.9-20.11,52.72-48.65,52.72
			c-20.38,0-34.79-8.97-47.29-22.56l5.98-5.71c11.14,11.41,22.83,19.57,41.04,19.57c23.92,0,39.41-18.21,39.41-43.48
			c0-24.46-9.78-35.06-37.78-46.2c-30.98-12.23-42.67-25.54-42.67-48.92s17.67-43.76,43.48-43.76
			C1166.05,736.41,1177.47,744.02,1188.88,756.25z"/>
		<path d="M1323.13,851.37v73.38h-9.78v-73.11l-48.38-112.24h10.33l43.21,103.27l42.4-103.27h9.78L1323.13,851.37z"/>
		<path d="M1556.86,924.75h-12.23l-76.64-174.48c0.54,10.87,1.09,25,1.09,57.62v116.86h-8.97V739.4h12.23l76.64,174.48
			c-0.27-10.6-1.36-28.81-1.36-53.54V739.4h9.24V924.75z"/>
		<path d="M1757.15,752.71l-5.44,5.98c-10.33-8.97-18.48-13.32-31.8-13.32c-28.54,0-51.64,22.56-51.64,86.7
			c0,61.42,22.29,86.42,51.09,86.42c16.04,0,24.73-6.52,33.7-14.95l5.71,6.25c-9.51,10.05-22.01,17.66-39.68,17.66
			c-34.79,0-60.61-29.62-60.61-95.39c0-67.4,27.45-95.66,60.88-95.66C1736.22,736.41,1746.82,742.93,1757.15,752.71z"/>
	</g>
	<path class="st1" d="M525.43,169.22c126.1-61.5,269.02-83.05,409.26-78.88s278.6,33.14,414.36,68.53
		c-60.37-46.5-135.3-70.07-210.04-84.94C926.8,31.7,694.76,56.89,525.43,169.22z"/>
	<path class="st2" d="M1320.27,82.55c150.75,79.8,301.49,159.6,454.64,241.26c-23.04,71.18-49.05,146.74-108.15,192.63
		c-60.77,47.19-145.95,52.59-220.27,32.69c-74.33-19.9-140.47-61.95-205.3-103.4c-59.85-38.27-119.7-76.54-179.55-114.81
		c-23.84-15.24-47.71-30.5-72.56-44.04c-91.82-50.02-196.76-75.68-296.26-78.8c181.19,9.7,355.88,68.84,535.31,95.87
		c29.16,4.39,58.91,7.93,88.05,3.4s57.99-18.11,75.16-42.09c22.07-30.82,20.82-74.28,3.65-108.07
		C1377.83,123.42,1347.03,98.29,1320.27,82.55z"/>
	<path class="st3" d="M1594.89,587.46c-72.79,54.31-171.94,62.94-260.31,42.34c-88.38-20.59-168.27-67.22-244.81-115.96
		S937.7,413.18,853.22,380.06c-122.69-48.11-259.49-53.96-389.12-30.22S211.41,425.85,96.53,490.42
		c13.88-48.25,42.64-90.86,74.27-129.84C288.46,215.58,453.07,109.32,633.06,65.59c-65.82,19.2-128.85,47.91-186.53,84.97
		c-28.69,18.43-56.79,39.68-74.36,68.91c-4.1,6.81-7.64,15.14-4.59,22.48c4.73,11.38,20.55,11.65,32.73,9.79
		c40.45-6.18,80.55-14.76,121.22-19.31c201.16-22.52,401.98,55.51,571.42,166.23c78.01,50.97,151.74,109.28,235.42,150.29
		C1412.04,589.95,1509.33,612.7,1594.89,587.46z"/>
	<path class="st4" d="M1422.89,655.82c33.31,12.5,70.5,4.06,104.67-5.83c28.88-8.36,57.71-17.79,83.87-32.61
		c26.16-14.82,49.71-35.47,63.81-62.03c-4,21.77-9.12,43.35-15.31,64.6c-4.92,16.9-10.81,34.09-22.4,47.34
		c-14.44,16.5-36.43,25.01-58.27,26.92c-21.85,1.91-43.77-2.16-65.07-7.36C1480.83,678.72,1448.16,667.76,1422.89,655.82z"/>
</g>
</svg>
